<?xml version="1.0" encoding="utf-8"?>
<!-- Generator: Adobe Illustrator 23.0.3, SVG Export Plug-In . SVG Version: 6.00 Build 0)  -->
<svg version="1.1"
	 id="logosvg.com" xmlns:cc="http://creativecommons.org/ns#" xmlns:dc="http://purl.org/dc/elements/1.1/" xmlns:rdf="http://www.w3.org/1999/02/22-rdf-syntax-ns#" xmlns:svg="http://www.w3.org/2000/svg"
	 xmlns="http://www.w3.org/2000/svg" xmlns:xlink="http://www.w3.org/1999/xlink" x="0px" y="0px" viewBox="0 0 400 300"
	 style="enable-background:new 0 0 400 300;" xml:space="preserve">
<path id="logosvg.com_1_" d="M328,253.7v7.2h-30.7v-31.4h9.2v24.2H328z M194.8,282.3h3.5h3.3c0.2,1.8-0.4,2.7-1.8,2.9
	c-1.5,0.1-2.9,0.3-4.4,0.3c-6.1,0-6.8-0.7-6.4-6.8c0-0.1,0-0.2,0-0.3c0.2-2.3,1.1-3.1,3.3-3.2c1.8-0.1,3.5,0,5.3,0
	c1.8,0,3.6,0.1,4,2.3h4.5c0.6-3.6-0.5-5.6-4-5.8c-4.4-0.3-8.9-0.2-13.4,0c-3,0.2-4.5,1.9-4.7,4.9c-0.2,2.5-0.1,5.1,0,7.6
	c0.2,2.7,1.4,4.1,4.1,4.7c1,0.2,2,0.4,3,0.7h8.9c0.7-0.2,1.4-0.3,2.1-0.5c1.9-0.4,3.8-1,4.2-3.2c0.4-2.1,0.4-4.3,0.5-6.6h-12V282.3z
	 M159.6,260.7v-31.1h-9v23.8c-6.4-8.3-12.5-16.2-18.5-23.9H118v31.3h9v-23.3l0.4-0.1c6.1,7.8,12.3,15.7,18.3,23.3H159.6z
	 M191.3,252.5c-3.3-0.4-6.6-0.3-9.8-0.4c-1.9,0-3.7,0-5.8,0v8.6h-9v-31.3c0.7,0,1.3-0.1,1.9-0.1c7.8,0,15.5,0,23.3,0
	c2,0,4.1,0.2,6.1,0.6c4,0.8,5.5,2.4,6,6.4c0.2,1.7,0.3,3.4,0.2,5.1c-0.2,3.4-1.6,6-5.4,6.9c0.5,0.3,0.7,0.4,0.9,0.5
	c3.9,0.7,4.4,2.4,4.6,6.4c0.1,1.8,0,3.6,0,5.6h-9c-0.1-1.4-0.2-2.8-0.3-4.2C194.8,253.9,194,252.8,191.3,252.5z M192,245.2
	c1.4,0,2.7-0.8,2.8-2.4c0.5-5,0-6.4-5.1-6.5c-0.6,0-1.1,0-1.7,0c-4.1,0-8.1,0-12.3,0v9C181.3,245.2,186.6,245.3,192,245.2z
	 M219.9,248.1h23.4v-6.3h-23.5v-5.6h24.8v-6.6h-34v31.2h34.4v-6.9h-25.2V248.1z M111.2,230.4c0-0.3-0.2-0.6-0.3-0.9h-9
	c0,5.6,0,10.9,0,16.3c0,1.5-0.1,2.9-0.3,4.4c-0.2,2.1-1.6,3.4-3.5,3.5c-4.1,0.2-8.3,0.4-12.4,0.1c-3.3-0.2-4.4-1.7-4.4-5.1
	c-0.1-5.8,0-11.6-0.1-17.4c0-0.6-0.1-1.3-0.2-1.9h-9c0,7.8-0.3,15.3,0.1,22.9c0.3,5.2,2.4,7.3,7.7,8.2c7.7,1.3,15.4,1.2,23,0.1
	c5.8-0.9,7.8-3,8.1-8.9C111.3,244.6,111.2,237.5,111.2,230.4z M276.2,229.4c5.6,10.3,11.3,20.6,17.1,31.4h-9.9
	c-0.9-1.8-1.9-3.5-2.9-5.4h-20.2c-0.9,1.7-1.9,3.5-2.8,5.4h-9.8c5.8-10.6,11.4-21,17-31.4H276.2z M277.1,248.6
	c-2.2-4.4-4.4-8.5-6.7-13.1c-2.3,4.6-4.5,8.8-6.6,13.1H277.1z M174.5,284.4c-0.1,0-0.3,0.1-0.4,0.1c-3.5-4.5-6.9-8.9-10.2-13.2h-8
	V289h4.9v-12.9c0.2-0.1,0.3-0.1,0.5-0.2c3.5,4.4,6.9,8.8,10.3,13.1h8v-17.7h-5.1V284.4z M238.5,284.4c-0.1,0-0.3,0.1-0.4,0.1
	c-3.4-4.4-6.8-8.7-10-13h-7.9v17.4h5v-13.3c3.8,4.8,7.2,9.2,10.5,13.4h7.8v-17.4h-5V284.4z M138,281.9h13.3v-3.6H138V275H152v-3.7
	h-19.2V289h19.5v-3.8H138V281.9z M253.4,281.9h13.1v-3.6h-13v-3.3h13.8v-3.5h-19v17.4h19.3v-3.7h-14.2V281.9z M210.7,289h4.9v-17.4
	h-4.9V289z M263.1,43.6c16.9,16.9,26.3,39.5,26.3,63.5s-9.3,46.5-26.3,63.5c-16.9,16.9-39.5,26.3-63.5,26.3s-46.5-9.3-63.5-26.3
	c-16.9-16.9-26.3-39.5-26.3-63.5s9.3-46.5,26.3-63.5c16.9-16.9,39.5-26.3,63.5-26.3S246.1,26.7,263.1,43.6z M261,122
	c-10.1,10.6-16.5,13.1-20.3,13c-3.4,0-4.7-2-4.7-2c-0.2-0.9-0.5-14.2-0.6-27.4c-0.1-13.7,0-27.5,0.7-27.5
	c3.9-7.3,16.3-21.9,16.3-21.9c0,0,0,0-0.1,0c0,0,0,0,0,0c-22.5,4.4-35.1,18.7-35.9,19.6c-2.8-2.2-7.9-2.4-10.2-2.4
	c-0.8,0-1.3,0-1.3,0c3.6,2,6.9,7.6,6.9,12.3v46.3c0,0-7.6,6.8-13.6,6.8c-3.5,0-5.4-1.9-6.6-3.5c-0.8-1.1-1-2-1-2V76.2
	c-1.4,0.5-2,1-3.1,1c-1.3,0-2.7-0.6-3.6-2.5c-0.7-1.4-1.2-3.5-1.2-6.6c0-10.6,12-17.5,12-17.5c0,0,0,0-0.1,0c0,0,0,0,0,0
	c-15.3,4.1-29.4,11.9-48.3,33.3c-18.8,21.4-15.3,39.2-15.3,39.2s0,0,0,0c0,0,0,0,0,0s5.2-12.2,17.7-25c5.9-6.1,10.3-8.1,13.3-8.1
	c3.4,0,4.9,2.5,4.9,4.7v43.5c0,4.3-2.7,5.2-5.3,5.2c-2.2,0-4.1-0.8-4.1-0.8c0,0,0,0,0,0c0,0-0.1,0-0.1,0
	c12.8,18.5,43.6,21.1,43.6,21.1l0,0c0,0,0,0,0,0l13.5-14.3l0.3,0.3l12.4,10.5c0,0,0,0,0,0l0,0c19.1-11.2,29.8-30.6,32.7-36.3
	C260.7,122.6,261,122,261,122z M267.9,38.8c18.2,18.2,28.3,42.5,28.3,68.3c0,25.8-10,50-28.3,68.3c-18.2,18.2-42.5,28.3-68.3,28.3
	c-25.8,0-50-10-68.3-28.3c-18.2-18.2-28.3-42.5-28.3-68.3c0-25.8,10-50,28.3-68.3c18.2-18.2,42.5-28.3,68.3-28.3
	C225.4,10.5,249.6,20.6,267.9,38.8z M293.5,107.1c0-51.8-42-93.9-93.9-93.9s-93.9,42-93.9,93.9s42,93.9,93.9,93.9
	S293.5,158.9,293.5,107.1z"/>
</svg>
